<?xml version="1.0" encoding="UTF-8"?>
<svg id="Layer_2" data-name="Layer 2" xmlns="http://www.w3.org/2000/svg" width="631.12" height="207.28" xmlns:xlink="http://www.w3.org/1999/xlink" viewBox="0 0 631.12 207.28">
  <defs>
    <linearGradient id="linear-gradient" x1="14.68" y1="-107.29" x2="645.8" y2="-107.29" gradientTransform="translate(-14.68 210.93)" gradientUnits="userSpaceOnUse">
      <stop offset="0" stop-color="#018abe"/>
      <stop offset="1" stop-color="#280594"/>
    </linearGradient>
  </defs>
  <g id="Layer_1-2" data-name="Layer 1">
    <g>
      <path d="M436.27,64.5c6.84,8.36,14.44,16.15,22.13,23.76,4.44,4.39,10.01,7.46,16.34,8.57,1.68.3,3.47.04,6.11.04-22.24-27.93-43.77-54.95-65.81-82.62,11.57,0,22.05-.08,32.51.1,1.31.02,2.95,1.18,3.85,2.28,8.19,10.06,16.23,20.23,24.34,30.36,8.26,10.32,16.07,21.05,24.9,30.85,20.12,22.34,52.52,19.3,68.47-1.9,18.36-24.41,37.86-47.96,56.85-71.9.89-1.12,1.68-2.3,2.75-3.78-1.08-.15-1.54-.27-2.01-.27-22.59-.01-45.17-.06-67.76.09-1.42,0-3.2,1.22-4.17,2.4-6.11,7.41-12.04,14.96-18.03,22.47-6.75,8.47-13.48,16.94-20.45,25.69,3.33,3.78,6.5,7.37,9.85,11.16,1.25-1.49,2.14-2.51,2.99-3.57,10.97-13.74,21.96-27.47,32.87-41.26,1.51-1.91,3.06-2.85,5.62-2.81,9.11.16,18.22.05,27.33.07,1.01,0,2.03.17,3.49.3-1.03,1.4-1.66,2.31-2.34,3.18-12.69,16.04-25.38,32.08-38.09,48.11-13.6,17.16-34.79,16.89-48.39-.32-16.78-21.23-33.79-42.28-50.81-63.32-.93-1.14-2.85-2.09-4.31-2.1C432.15-.03,409.81,0,387.47.01c-.59,0-1.18.08-2.42.18.92,1.24,1.41,1.95,1.95,2.63,16.39,20.59,32.6,41.32,49.27,61.68Z" style="fill: url(#linear-gradient); stroke-width: 0px;"/>
      <path d="M621.1,194.51c-15.92-20.02-31.82-40.04-47.72-60.07-6.25-7.88-13.6-14.29-23.46-17.17-3-.87-6.17-1.17-9.26-1.74-.16.33-.32.67-.48,1,20.12,25.26,40.23,50.52,60.85,76.41-11.69,0-22.39.06-33.1-.1-1.08-.02-2.37-1.18-3.17-2.13-3.52-4.21-6.9-8.54-10.32-12.83-12.44-15.61-24.65-31.41-37.37-46.78-19.32-23.35-52.92-22.61-70.21.24-18.89,24.96-38.79,49.15-58.24,73.69-.42.53-.69,1.17-1.26,2.17,23.83,0,47.14.02,70.45-.07.93,0,2.11-.77,2.73-1.54,13.05-16.23,26.04-32.51,39.24-49.03-3.24-3.7-6.42-7.32-9.76-11.14-1.02,1.11-1.81,1.87-2.49,2.72-10.04,12.57-20.35,24.95-29.97,37.84-3.99,5.35-8.15,7.66-14.86,7.12-8.13-.65-16.35-.15-25.09-.15.77-1.24,1.15-1.99,1.65-2.63,13.55-17.12,26.99-34.32,40.73-51.29,5.15-6.36,12.29-9.7,20.49-10.29,11.31-.82,19.44,4.74,26.18,13.22,16.54,20.79,33.22,41.48,49.79,62.25,1.56,1.96,3.09,3.1,5.86,3.08,21.72-.13,43.44-.07,65.15-.08,1.03,0,2.06-.15,3.67-.27-3.62-4.48-6.85-8.43-10.03-12.42Z" style="fill: url(#linear-gradient); stroke-width: 0px;"/>
      <g>
        <path d="M180.35,23.09h-25.89c-1.36,0-2.42.83-3.18,2.5l-31.57,92.22c-.15.61-.42.87-.8.8-.38-.07-.57-.34-.57-.8l-10.68-92.45c-.15-1.51-1.06-2.27-2.73-2.27h-26.8c-1.36,0-2.42.83-3.18,2.5l-31.57,92.22c-.15.61-.38.91-.68.91s-.53-.3-.68-.91l-9.54-92.45c-.15-1.51-.99-2.27-2.5-2.27H2.49c-1.38,0-2.49,1.12-2.49,2.49v.46l20.22,153.78c.15,1.52,1.06,2.27,2.73,2.27h24.53c1.66,0,2.73-.83,3.18-2.5l32.94-98.13c.3-.6.57-.91.79-.91s.42.31.57.91l10.45,98.35c.15,1.52.98,2.27,2.5,2.27h26.12c1.66,0,2.8-.76,3.41-2.27L182.4,26.04c.6-1.97-.08-2.95-2.04-2.95Z" style="fill: url(#linear-gradient); stroke-width: 0px;"/>
        <path d="M262.63,76.95c-7.71-8.76-18.9-13.15-33.56-13.15-11.49,0-21.88,3.17-31.18,9.52-9.3,6.35-16.29,14.89-20.97,25.62-3.48,7.56-5.52,15.57-6.12,24.03-.45,4.08-.68,7.94-.68,11.56,0,6.5.6,11.87,1.81,16.1,2.57,10.58,7.86,18.82,15.87,24.71,8.01,5.89,18.29,8.84,30.84,8.84,9.07,0,17.65-1.7,25.73-5.1,8.08-3.4,14.92-8.2,20.52-14.4.6-.6.91-1.28.91-2.04,0-.6-.23-1.21-.68-1.81l-14.06-16.1c-1.06-1.36-2.19-1.21-3.4.45-6.65,7.71-14.59,11.64-23.81,11.79-11.49,0-18.74-4.23-21.77-12.7-.76-2.72-1.21-5.74-1.36-9.07,0-.75.38-1.13,1.13-1.13h68.02c1.66,0,2.72-.91,3.17-2.72,1.06-8.16,1.51-14.58,1.36-19.27-.15-14.66-4.08-26.38-11.79-35.14ZM242.45,113.09h-38.09c-.61,0-.91-.38-.91-1.13.45-1.81,1.28-4.23,2.49-7.26,3.93-8.92,10.58-13.38,19.95-13.38,4.84,0,8.73,1.25,11.68,3.74,2.95,2.49,4.8,6.01,5.56,10.54.3,2.42.45,4.53.45,6.35,0,.63-.51,1.13-1.13,1.13Z" style="fill: url(#linear-gradient); stroke-width: 0px;"/>
        <path d="M396.73,95.09c-2.12-9.69-6.47-17.38-13.06-23.05-6.59-5.68-15.26-8.52-26.01-8.52s-19.08,3.79-25.89,11.36c-.31.45-.61.61-.91.45-.31-.15-.38-.45-.23-.91l5.91-48.61c.15-.76,0-1.4-.45-1.93-.45-.53-1.06-.79-1.82-.79h-25.67c-.76,0-1.44.27-2.04.79-.61.53-.99,1.17-1.14,1.93l-18.85,153.55c0,1.82.83,2.73,2.5,2.73h25.64c.63,0,1.26-.18,1.73-.59.66-.56,1.07-1.28,1.25-2.14l.91-7.5c.15-.45.38-.72.68-.79.3-.08.53.04.68.34,5.15,8.33,13.1,12.49,23.85,12.49,10.14,0,19.31-2.95,27.48-8.86,8.18-5.91,14.54-14,19.08-24.3,3.33-7.87,5.75-17.04,7.27-27.48.45-4.39.68-8.55.68-12.49,0-5.75-.53-10.98-1.59-15.67ZM365.34,124.21c-1.21,9.52-3.71,17.08-7.48,22.67-4.38,6.5-10.13,9.75-17.23,9.75-6.65,0-11.42-3.25-14.29-9.75-1.51-3.48-2.27-8.01-2.27-13.6,0-3.02.23-6.12.68-9.3,1.36-10.28,4-18.21,7.94-23.81,4.08-5.9,9.29-8.84,15.64-8.84,6.95,0,11.79,2.95,14.51,8.84,1.96,3.78,2.95,8.92,2.95,15.42,0,3.63-.15,6.5-.45,8.62Z" style="fill: url(#linear-gradient); stroke-width: 0px;"/>
      </g>
    </g>
  </g>
</svg>