
<svg id="Layer_1" data-name="Layer 1" xmlns="http://www.w3.org/2000/svg" width="1000" height="1000" xmlns:xlink="http://www.w3.org/1999/xlink" viewBox="0 0 1000 1000">
    <defs>
        <linearGradient id="linear-gradient" x1="200" y1="365.52" x2="794.11" y2="365.52" gradientUnits="userSpaceOnUse">
            <stop offset="0" stop-color="#018abe"/>
            <stop offset="1" stop-color="#280594"/>
        </linearGradient>
        <linearGradient id="linear-gradient-2" x1="205.6" y1="638.86" x2="800" y2="638.86" xlink:href="#linear-gradient"/>
    </defs>
    <path d="M200,247.75c3.03-.23,4.46-.44,5.9-.44,54.46-.02,108.93-.11,163.39.21,3.57.02,8.25,2.34,10.51,5.12,41.5,51.3,82.99,102.63,123.91,154.4,33.17,41.97,84.84,42.62,118,.79,30.98-39.08,61.92-78.19,92.87-117.31,1.67-2.12,3.21-4.34,5.72-7.75-3.57-.32-6.04-.72-8.51-.72-22.21-.05-44.43.21-66.63-.18-6.23-.11-10.01,2.18-13.69,6.85-26.59,33.63-53.4,67.1-80.15,100.61-2.07,2.59-4.25,5.09-7.29,8.72-8.17-9.26-15.89-18.01-24.02-27.22,16.98-21.33,33.41-41.99,49.86-62.63,14.59-18.31,29.06-36.73,43.96-54.79,2.37-2.87,6.72-5.82,10.18-5.84,55.07-.36,110.14-.25,165.22-.22,1.13,0,2.27.29,4.9.65-2.61,3.6-4.54,6.5-6.7,9.22-46.31,58.36-93.85,115.79-138.62,175.31-38.89,51.7-117.89,59.1-166.96,4.63-21.54-23.91-40.57-50.07-60.71-75.23-19.76-24.69-39.38-49.5-59.34-74.03-2.2-2.7-6.18-5.51-9.39-5.57-25.52-.45-51.06-.25-79.28-.25,53.75,67.48,106.23,133.37,160.47,201.46-6.44,0-10.78.61-14.89-.11-15.44-2.72-29.02-10.19-39.84-20.91-18.75-18.56-37.26-37.56-53.95-57.95-40.63-49.65-80.17-100.2-120.13-150.4-1.31-1.65-2.51-3.38-4.75-6.4Z" style="fill: url(#linear-gradient); stroke-width: 0px;"/>
    <path d="M455.9,601.88c8.16,9.31,15.91,18.15,23.81,27.16-32.17,40.27-63.84,79.97-95.67,119.55-1.51,1.88-4.41,3.75-6.66,3.76-56.84.21-113.67.16-171.77.16,1.41-2.45,2.07-4.02,3.08-5.3,47.43-59.83,95.97-118.82,142.02-179.68,42.15-55.71,124.08-57.53,171.2-.59,31.02,37.49,60.78,76.02,91.12,114.08,8.34,10.47,16.58,21.02,25.16,31.29,1.95,2.33,5.09,5.16,7.72,5.2,26.1.39,52.21.23,80.7.23-50.28-63.13-99.32-124.72-148.37-186.31.39-.82.78-1.63,1.17-2.45,7.54,1.37,15.27,2.1,22.59,4.23,24.05,7.01,41.97,22.65,57.21,41.86,38.76,48.85,77.55,97.67,116.36,146.48,7.74,9.74,15.62,19.36,24.44,30.28-3.92.3-6.44.66-8.95.67-52.96.03-105.91-.12-158.87.2-6.73.04-10.46-2.73-14.28-7.51-40.41-50.64-81.08-101.08-121.42-151.78-16.45-20.67-36.25-34.23-63.84-32.23-20,1.45-37.4,9.59-49.96,25.1-33.5,41.36-66.28,83.31-99.31,125.06-1.24,1.57-2.15,3.39-4.03,6.42,21.31,0,41.36-1.2,61.18.37,16.38,1.3,26.51-4.32,36.24-17.36,23.44-31.44,48.58-61.62,73.07-92.27,1.65-2.07,3.58-3.92,6.07-6.63Z" style="fill: url(#linear-gradient-2); stroke-width: 0px;"/>
</svg>